<svg id="Camada_1" data-name="Camada 1" xmlns="http://www.w3.org/2000/svg" viewBox="0 0 47.74 42.76"><title>dn_dms_por_sistema</title><path d="M4262.37,1514.21c-6.16,0-12.33,0-18.49,0-3.28,0-5.2-1.92-5.21-5.19q0-11.46,0-22.91c0-3.24,2-5.19,5.22-5.19q18.65,0,37.29,0c3.25,0,5.21,2,5.21,5.2q0,11.46,0,22.91c0,3.26-1.93,5.18-5.22,5.18C4274.9,1514.22,4268.64,1514.21,4262.37,1514.21Zm19.16-28.44h-38v23.6h38v-23.6Z" transform="translate(-4238.66 -1480.9)" style="fill:#fff"/><path d="M4257.71,1519l0.25-2.22h9.13l0.25,2.16h7v4.75h-23.53V1519h6.94Z" transform="translate(-4238.66 -1480.9)" style="fill:#fff"/><text transform="translate(8.09 19.47)" style="font-size:8.697099685668945px;fill:#fff;font-family:HelveticaLTStd Roman">DN/DMS</text></svg>