<svg id="Camada_1" data-name="Camada 1" xmlns="http://www.w3.org/2000/svg" viewBox="0 0 36.66 47.59"><title>orcamento_resumoorcamento</title><path d="M6844.32,364.46H6835a1,1,0,0,1-1-1.43,1.05,1.05,0,0,1,1.07-.57h18.65a1,1,0,0,1,1,1,1,1,0,0,1-1,1h-9.43Z" transform="translate(-6826.1 -329.73)" style="fill:#fff"/><path d="M6844.39,367.39H6854a0.93,0.93,0,0,1,.86.93,0.94,0.94,0,0,1-.79,1,4.72,4.72,0,0,1-1,.07h-17.86a1.08,1.08,0,0,1-1.21-1,1,1,0,0,1,1.21-1h9.22Z" transform="translate(-6826.1 -329.73)" style="fill:#fff"/><path d="M6844.39,359.46h-9.15A1.06,1.06,0,0,1,6834,358a1.12,1.12,0,0,1,1.07-.57h18.22a2.43,2.43,0,0,1,.71.07,1.1,1.1,0,0,1,.71,1.07,1,1,0,0,1-1,.86h-9.36Z" transform="translate(-6826.1 -329.73)" style="fill:#fff"/><path d="M6836.68,377.32h22.44a3.76,3.76,0,0,0,3.64-3V333a4,4,0,0,0-2.86-3.29h-30.8a4.15,4.15,0,0,0-2.93,3.43,6.93,6.93,0,0,0-.07,1.21v38.94a3.68,3.68,0,0,0,4,4h6.57Zm-7.57-44.59h30.58v41.59H6829.1V332.73Z" transform="translate(-6826.1 -329.73)" style="fill:#fff"/><path d="M6845.32,352.24v2.22h-2.07v-2a8.51,8.51,0,0,1-3.64-.93l0.64-2.5a7.52,7.52,0,0,0,3.57.93c1.21,0,2.07-.5,2.07-1.36s-0.71-1.36-2.29-1.86c-2.29-.79-3.86-1.86-3.86-3.93,0-1.86,1.36-3.36,3.64-3.79v-2h2.07v1.86a7.16,7.16,0,0,1,3.07.71l-0.64,2.43a7.67,7.67,0,0,0-3.07-.71c-1.36,0-1.86.57-1.86,1.21s0.71,1.14,2.57,1.86c2.57,0.93,3.57,2.07,3.57,4S6847.82,351.81,6845.32,352.24Z" transform="translate(-6826.1 -329.73)" style="fill:#fff"/></svg>