<?xml version="1.0" encoding="utf-8"?>
<!-- Generator: Adobe Illustrator 19.2.0, SVG Export Plug-In . SVG Version: 6.00 Build 0)  -->
<svg version="1.1" id="Camada_1" xmlns="http://www.w3.org/2000/svg" xmlns:xlink="http://www.w3.org/1999/xlink" x="0px" y="0px"
	 viewBox="0 0 36.8 47.7" style="enable-background:new 0 0 36.8 47.7;" xml:space="preserve">
<style type="text/css">
	.st0{fill:#FFFFFF;}
</style>
<title>orcamento_resumoporunidade</title>
<g>
	<path class="st0" d="M10.6,47.7h22.5c1.8,0,3.3-1.3,3.6-3V3.3c-0.2-1.6-1.3-2.9-2.9-3.3H3C1.4,0.5,0.3,1.8,0.1,3.4
		C0,3.8,0,4.3,0,4.7v39c-0.2,2,1.3,3.8,3.4,4c0.2,0,0.4,0,0.6,0L10.6,47.7L10.6,47.7z M3,3.1h30.7v41.7H3V3.1z"/>
	<g>
		<path class="st0" d="M25.2,28.6c0,0.7,0,1.4,0,2.1c0,1.1-0.8,1.9-1.9,2c-0.9,0-1.8,0-2.7,0c-0.3,0-0.4-0.1-0.4-0.4
			c0-1.3,0-2.6,0-3.9c0-0.4-0.1-0.6-0.6-0.5c-0.8,0-1.7,0-2.5,0c-0.4,0-0.5,0.1-0.5,0.5c0,1.3,0,2.6,0,3.9c0,0.4-0.1,0.5-0.5,0.5
			c-0.8,0-1.7,0-2.5,0c-1.1,0-2.1-0.7-2.1-2.1c0-1.4,0-2.8,0-4.2c0-0.3,0.1-0.6,0.3-0.8c2-2,3.9-3.9,5.9-5.9c0.5-0.5,0.7-0.5,1.2,0
			c2,2,3.9,3.9,5.9,5.9c0.3,0.2,0.4,0.5,0.4,0.9C25.2,27.1,25.2,27.8,25.2,28.6z"/>
		<path class="st0" d="M22.5,17.8c0-0.3,0-0.6,0-0.9c0-0.7,0.5-1.2,1.1-1.2c0.6,0,1.1,0.5,1.1,1.2c0,0.9,0,1.8,0,2.7
			c0,0.3,0.1,0.6,0.3,0.9c0.8,0.8,1.6,1.6,2.4,2.4c0.5,0.5,0.6,1.2,0.1,1.7C27,25,26.4,25,25.8,24.4c-2.2-2.2-4.5-4.5-6.7-6.7
			c-0.7-0.7-0.8-0.7-1.5,0c-2.2,2.2-4.5,4.4-6.7,6.7c-0.5,0.5-1,0.6-1.5,0.3c-0.6-0.4-0.7-1.2-0.1-1.8c1.6-1.6,3.1-3.2,4.7-4.7
			c0.8-0.8,1.5-1.5,2.3-2.3c1.2-1.2,2.9-1.2,4.1-0.1c0.7,0.6,1.3,1.3,1.9,2C22.4,17.9,22.4,17.8,22.5,17.8z"/>
		<path class="st0" d="M24.5,19.9c0-1,0-2,0-3c0,0,0,0,0.1,0C24.5,17.9,24.5,18.9,24.5,19.9C24.5,19.9,24.5,19.9,24.5,19.9z"/>
	</g>
</g>
</svg>
