<svg id="Camada_1" data-name="Camada 1" xmlns="http://www.w3.org/2000/svg" viewBox="0 0 36.76 47.72"><title>orcamento_resumoporunidade</title><path d="M7040.64,376.66h22.5a3.77,3.77,0,0,0,3.65-3V332.24a4,4,0,0,0-2.87-3.3H7033a4.17,4.17,0,0,0-2.94,3.44,7,7,0,0,0-.07,1.22v39a3.69,3.69,0,0,0,4,4h6.59ZM7033,332h30.67v41.7H7033V332Z" transform="translate(-7030.04 -328.94)" style="fill:#fff"/><path d="M7038.6,337.7v30.2h18.9V337.7h-18.9Zm8.61,16.52h-5.48v-4h5.48v4Zm0-5h-5.48v-4h5.48v4Zm0-4.61h-5.48v-4h5.48v4Zm6.37,9.59h-5.48v-4h5.48v4Zm-6.41,5h-5.48v-4h5.48v4Zm6.37,0h-5.48v-4h5.48v4Zm-6.37,4.89h-5.48v-4h5.48v4Zm6.37,0h-5.48v-4h5.48v4Zm0-14.86h-5.48v-4h5.48v4Zm0-4.61h-5.48v-4h5.48v4Z" transform="translate(-7030.04 -328.94)" style="fill:#fff"/></svg>