<svg id="Camada_1" data-name="Camada 1" xmlns="http://www.w3.org/2000/svg" viewBox="0 0 45.32 45.32"><title>servicos_defeitos</title><path d="M4158.25,1474.21a22.66,22.66,0,1,0,22.66,22.66A22.64,22.64,0,0,0,4158.25,1474.21Zm0,41.86a19.2,19.2,0,1,1,19.2-19.2A19.18,19.18,0,0,1,4158.25,1516.07Z" transform="translate(-4135.59 -1474.21)" style="fill:#fff"/><path d="M4161.6,1505.34l-1.78-3.22c-0.73-1.24-1.2-2.16-1.76-3.19H4158c-0.41,1-.91,1.95-1.52,3.19l-1.64,3.22h-5.09l5.7-9-5.5-8.78h5.12l1.73,3.24c0.59,1.08,1,2,1.49,3h0.06c0.47-1.13.85-1.93,1.34-3l1.67-3.24h5.09l-5.56,8.67,5.85,9.09h-5.15Z" transform="translate(-4135.59 -1474.21)" style="fill:#fff"/></svg>