<svg id="Camada_1" data-name="Camada 1" xmlns="http://www.w3.org/2000/svg" viewBox="0 0 45.32 45.32"><title>tempo_medio_de_entrega</title><path d="M3852.79,1479.49a22.66,22.66,0,1,0,22.66,22.66A22.64,22.64,0,0,0,3852.79,1479.49Zm0,41.86a19.2,19.2,0,1,1,19.2-19.2A19.18,19.18,0,0,1,3852.79,1521.35Z" transform="translate(-3830.13 -1479.49)" style="fill:#fff"/><path d="M3870.07,1502.25a16.54,16.54,0,0,1-10.13,15.27,17.09,17.09,0,0,1-18.54-3.31c-0.62-.62-0.65-1,0-1.55,3.55-3.2,7-6.47,10.59-9.68a2.52,2.52,0,0,0,.93-2.08c0-4.65,0-9.3-.05-13.95,0-1.37.43-1.63,1.69-1.55C3863.17,1485.91,3870,1493.28,3870.07,1502.25Z" transform="translate(-3830.13 -1479.49)" style="fill:#fff"/></svg>